<svg width="86" height="86" viewBox="0 0 86 86" fill="none" xmlns="http://www.w3.org/2000/svg">
<path d="M64.5 14.3334H60.9167V10.7501C60.9167 9.79972 60.5391 8.88829 59.8671 8.21628C59.1951 7.54428 58.2837 7.16675 57.3333 7.16675C56.383 7.16675 55.4715 7.54428 54.7995 8.21628C54.1275 8.88829 53.75 9.79972 53.75 10.7501V14.3334H32.25V10.7501C32.25 9.79972 31.8725 8.88829 31.2005 8.21628C30.5285 7.54428 29.617 7.16675 28.6667 7.16675C27.7163 7.16675 26.8049 7.54428 26.1329 8.21628C25.4609 8.88829 25.0833 9.79972 25.0833 10.7501V14.3334H21.5C18.6489 14.3334 15.9146 15.466 13.8986 17.482C11.8826 19.498 10.75 22.2323 10.75 25.0834V68.0834C10.75 70.9345 11.8826 73.6688 13.8986 75.6848C15.9146 77.7008 18.6489 78.8334 21.5 78.8334H64.5C67.3511 78.8334 70.0854 77.7008 72.1014 75.6848C74.1174 73.6688 75.25 70.9345 75.25 68.0834V25.0834C75.25 22.2323 74.1174 19.498 72.1014 17.482C70.0854 15.466 67.3511 14.3334 64.5 14.3334ZM28.6667 60.9167C27.958 60.9167 27.2652 60.7066 26.6759 60.3129C26.0866 59.9191 25.6273 59.3595 25.3561 58.7047C25.0849 58.0499 25.0139 57.3294 25.1522 56.6343C25.2904 55.9392 25.6317 55.3008 26.1329 54.7996C26.634 54.2985 27.2725 53.9572 27.9676 53.8189C28.6627 53.6807 29.3832 53.7516 30.038 54.0228C30.6927 54.2941 31.2524 54.7533 31.6461 55.3426C32.0398 55.9319 32.25 56.6247 32.25 57.3334C32.25 58.2838 31.8725 59.1952 31.2005 59.8672C30.5285 60.5392 29.617 60.9167 28.6667 60.9167ZM57.3333 60.9167H43C42.0496 60.9167 41.1382 60.5392 40.4662 59.8672C39.7942 59.1952 39.4167 58.2838 39.4167 57.3334C39.4167 56.3831 39.7942 55.4716 40.4662 54.7996C41.1382 54.1276 42.0496 53.7501 43 53.7501H57.3333C58.2837 53.7501 59.1951 54.1276 59.8671 54.7996C60.5391 55.4716 60.9167 56.3831 60.9167 57.3334C60.9167 58.2838 60.5391 59.1952 59.8671 59.8672C59.1951 60.5392 58.2837 60.9167 57.3333 60.9167ZM68.0833 39.4167H17.9167V25.0834C17.9167 24.1331 18.2942 23.2216 18.9662 22.5496C19.6382 21.8776 20.5496 21.5001 21.5 21.5001H25.0833V25.0834C25.0833 26.0338 25.4609 26.9452 26.1329 27.6172C26.8049 28.2892 27.7163 28.6667 28.6667 28.6667C29.617 28.6667 30.5285 28.2892 31.2005 27.6172C31.8725 26.9452 32.25 26.0338 32.25 25.0834V21.5001H53.75V25.0834C53.75 26.0338 54.1275 26.9452 54.7995 27.6172C55.4715 28.2892 56.383 28.6667 57.3333 28.6667C58.2837 28.6667 59.1951 28.2892 59.8671 27.6172C60.5391 26.9452 60.9167 26.0338 60.9167 25.0834V21.5001H64.5C65.4504 21.5001 66.3618 21.8776 67.0338 22.5496C67.7058 23.2216 68.0833 24.1331 68.0833 25.0834V39.4167Z" fill="url(#paint0_linear_88_629)"/>
<defs>
<linearGradient id="paint0_linear_88_629" x1="43" y1="7.16675" x2="43" y2="78.8334" gradientUnits="userSpaceOnUse">
<stop stop-color="#D273FF"/>
<stop offset="1" stop-color="#5C00FF" stop-opacity="0.5"/>
</linearGradient>
</defs>
</svg>
