<svg width="85" height="85" viewBox="0 0 85 85" fill="none" xmlns="http://www.w3.org/2000/svg">
<path d="M53.1257 56.6667H31.8757C30.9363 56.6667 30.0355 57.0399 29.3713 57.7041C28.7071 58.3683 28.334 59.2691 28.334 60.2084C28.334 61.1477 28.7071 62.0486 29.3713 62.7128C30.0355 63.3769 30.9363 63.7501 31.8757 63.7501H53.1257C54.065 63.7501 54.9658 63.3769 55.63 62.7128C56.2942 62.0486 56.6673 61.1477 56.6673 60.2084C56.6673 59.2691 56.2942 58.3683 55.63 57.7041C54.9658 57.0399 54.065 56.6667 53.1257 56.6667Z" fill="url(#paint0_linear_88_632)"/>
<path d="M31.8757 49.5836H42.5007C43.44 49.5836 44.3408 49.2104 45.005 48.5462C45.6692 47.8821 46.0423 46.9812 46.0423 46.0419C46.0423 45.1026 45.6692 44.2018 45.005 43.5376C44.3408 42.8734 43.44 42.5002 42.5007 42.5002H31.8757C30.9363 42.5002 30.0355 42.8734 29.3713 43.5376C28.7071 44.2018 28.334 45.1026 28.334 46.0419C28.334 46.9812 28.7071 47.8821 29.3713 48.5462C30.0355 49.2104 30.9363 49.5836 31.8757 49.5836Z" fill="url(#paint1_linear_88_632)"/>
<path d="M69.9128 29.5019L50.6462 8.25191C50.315 7.88502 49.9108 7.59149 49.4594 7.3902C49.008 7.18892 48.5195 7.08433 48.0253 7.08316H23.2337C22.0569 7.06912 20.889 7.28702 19.7965 7.7244C18.704 8.16178 17.7083 8.81008 16.8664 9.63229C16.0245 10.4545 15.3527 11.4345 14.8896 12.5163C14.4264 13.5981 14.1809 14.7606 14.167 15.9373V69.0623C14.1809 70.239 14.4264 71.4015 14.8896 72.4833C15.3527 73.5652 16.0245 74.5452 16.8664 75.3674C17.7083 76.1896 18.704 76.8379 19.7965 77.2752C20.889 77.7126 22.0569 77.9305 23.2337 77.9165H61.767C62.9437 77.9305 64.1117 77.7126 65.2042 77.2752C66.2967 76.8379 67.2923 76.1896 68.1343 75.3674C68.9762 74.5452 69.6479 73.5652 70.1111 72.4833C70.5743 71.4015 70.8198 70.239 70.8337 69.0623V31.8748C70.8314 30.9971 70.5032 30.1514 69.9128 29.5019ZM49.5837 17.7082L59.2878 28.3332H52.2045C51.8336 28.3108 51.4709 28.2147 51.1375 28.0506C50.8042 27.8866 50.5068 27.6577 50.2628 27.3775C50.0189 27.0972 49.8332 26.7712 49.7166 26.4184C49.5999 26.0657 49.5548 25.6932 49.5837 25.3227V17.7082ZM61.767 70.8332H23.2337C22.9871 70.8475 22.7401 70.8131 22.5068 70.7318C22.2736 70.6505 22.0587 70.5239 21.8744 70.3594C21.6902 70.1949 21.5402 69.9957 21.4331 69.7731C21.326 69.5505 21.2639 69.309 21.2503 69.0623V15.9373C21.2639 15.6907 21.326 15.4492 21.4331 15.2266C21.5402 15.004 21.6902 14.8047 21.8744 14.6402C22.0587 14.4757 22.2736 14.3492 22.5068 14.2679C22.7401 14.1866 22.9871 14.1521 23.2337 14.1665H42.5003V25.3227C42.4432 27.9316 43.4203 30.4572 45.2184 32.3482C47.0166 34.2393 49.4898 35.3423 52.0982 35.4165H63.7503V69.0623C63.7368 69.309 63.6746 69.5505 63.5676 69.7731C63.4605 69.9957 63.3105 70.1949 63.1262 70.3594C62.942 70.5239 62.7271 70.6505 62.4938 70.7318C62.2606 70.8131 62.0136 70.8475 61.767 70.8332Z" fill="url(#paint2_linear_88_632)"/>
<defs>
<linearGradient id="paint0_linear_88_632" x1="42.5007" y1="56.6667" x2="42.5007" y2="63.7501" gradientUnits="userSpaceOnUse">
<stop stop-color="#D273FF"/>
<stop offset="1" stop-color="#5C00FF" stop-opacity="0.5"/>
</linearGradient>
<linearGradient id="paint1_linear_88_632" x1="37.1882" y1="42.5002" x2="37.1882" y2="49.5836" gradientUnits="userSpaceOnUse">
<stop stop-color="#D273FF"/>
<stop offset="1" stop-color="#5C00FF" stop-opacity="0.5"/>
</linearGradient>
<linearGradient id="paint2_linear_88_632" x1="42.5003" y1="7.08252" x2="42.5003" y2="77.9171" gradientUnits="userSpaceOnUse">
<stop stop-color="#D273FF"/>
<stop offset="1" stop-color="#5C00FF" stop-opacity="0.5"/>
</linearGradient>
</defs>
</svg>
