<svg width="18" height="22" viewBox="0 0 18 22" fill="none" xmlns="http://www.w3.org/2000/svg">
<path d="M8.70863 21.5019C8.63024 21.5302 8.54443 21.5302 8.46603 21.5019C7.42482 21.1369 1.18435e-06 18.2387 1.18435e-06 9.9863V2.5282C-0.000224052 2.43227 0.0316828 2.33903 0.0906325 2.26335C0.149582 2.18766 0.232179 2.1339 0.325246 2.11064L8.48321 0.0679307C8.55157 0.0508428 8.62309 0.0508428 8.69145 0.0679307L16.8494 2.11064C16.9425 2.1339 17.0251 2.18766 17.084 2.26335C17.143 2.33903 17.1749 2.43227 17.1747 2.5282V9.9863C17.1747 18.3214 9.75091 21.1466 8.70863 21.503V21.5019Z" fill="url(#paint0_linear_88_580)" fill-opacity="0.75"/>
<defs>
<linearGradient id="paint0_linear_88_580" x1="8.58733" y1="0.0551147" x2="8.58733" y2="21.5231" gradientUnits="userSpaceOnUse">
<stop stop-color="#6EC1E4"/>
<stop offset="1" stop-color="#5C00FF" stop-opacity="0.5"/>
</linearGradient>
</defs>
</svg>
