<svg width="18" height="22" viewBox="0 0 18 22" fill="none" xmlns="http://www.w3.org/2000/svg">
<path d="M9.53382 21.5019C9.45543 21.5302 9.36962 21.5302 9.29123 21.5019C8.25002 21.1369 0.825196 18.2387 0.825196 9.9863V2.5282C0.824971 2.43227 0.856878 2.33903 0.915828 2.26335C0.974778 2.18766 1.05737 2.1339 1.15044 2.11064L9.3084 0.0679307C9.37677 0.0508428 9.44829 0.0508428 9.51665 0.0679307L17.6746 2.11064C17.7677 2.1339 17.8503 2.18766 17.9092 2.26335C17.9682 2.33903 18.0001 2.43227 17.9999 2.5282V9.9863C17.9999 18.3214 10.5761 21.1466 9.53382 21.503V21.5019Z" fill="url(#paint0_linear_88_582)" fill-opacity="0.75"/>
<defs>
<linearGradient id="paint0_linear_88_582" x1="9.41253" y1="0.0551147" x2="9.41253" y2="21.5231" gradientUnits="userSpaceOnUse">
<stop stop-color="#6EC1E4"/>
<stop offset="1" stop-color="#5C00FF" stop-opacity="0.5"/>
</linearGradient>
</defs>
</svg>
