<svg width="26" height="32" viewBox="0 0 26 32" fill="none" xmlns="http://www.w3.org/2000/svg">
<path d="M13.2572 31.547C13.1418 31.5886 13.0156 31.5886 12.9003 31.547C11.3688 31.0102 0.447267 26.747 0.447267 14.6082V3.63777C0.446936 3.49666 0.493869 3.3595 0.580581 3.24818C0.667292 3.13686 0.788787 3.05778 0.925684 3.02356L12.9256 0.0188516C13.0261 -0.00628386 13.1313 -0.00628386 13.2319 0.0188516L25.2318 3.02356C25.3687 3.05778 25.4902 3.13686 25.5769 3.24818C25.6636 3.3595 25.7105 3.49666 25.7102 3.63777V14.6082C25.7102 26.8686 14.7903 31.0244 13.2572 31.5486V31.547Z" fill="url(#paint0_linear_88_578)" fill-opacity="0.75"/>
<defs>
<linearGradient id="paint0_linear_88_578" x1="13.0787" y1="0" x2="13.0787" y2="31.5782" gradientUnits="userSpaceOnUse">
<stop stop-color="#6EC1E4"/>
<stop offset="1" stop-color="#5C00FF" stop-opacity="0.5"/>
</linearGradient>
</defs>
</svg>
