<svg width="87" height="87" viewBox="0 0 87 87" fill="none" xmlns="http://www.w3.org/2000/svg">
<path d="M64.6707 10.7786H21.5568C18.6982 10.7786 15.9566 11.9142 13.9353 13.9355C11.9139 15.9569 10.7783 18.6984 10.7783 21.557V64.6709C10.7783 67.5295 11.9139 70.2711 13.9353 72.2924C15.9566 74.3138 18.6982 75.4494 21.5568 75.4494H64.6707C67.5293 75.4494 70.2708 74.3138 72.2922 72.2924C74.3136 70.2711 75.4491 67.5295 75.4491 64.6709V21.557C75.4491 18.6984 74.3136 15.9569 72.2922 13.9355C70.2708 11.9142 67.5293 10.7786 64.6707 10.7786ZM28.7424 25.1499C29.8083 25.1499 30.8503 25.4659 31.7365 26.0581C32.6228 26.6503 33.3135 27.492 33.7214 28.4767C34.1293 29.4615 34.2361 30.5451 34.0281 31.5905C33.8202 32.6359 33.3069 33.5962 32.5532 34.3499C31.7995 35.1036 30.8392 35.6168 29.7938 35.8248C28.7484 36.0327 27.6648 35.926 26.6801 35.5181C25.6953 35.1102 24.8536 34.4194 24.2615 33.5332C23.6693 32.6469 23.3532 31.605 23.3532 30.5391C23.3532 29.1098 23.921 27.739 24.9317 26.7283C25.9424 25.7177 27.3131 25.1499 28.7424 25.1499ZM68.2635 64.0601C68.3429 65.0936 68.0093 66.1165 67.3358 66.9044C66.6623 67.6924 65.7039 68.1812 64.6707 68.2637H21.5568L48.7545 43.7607C49.2112 43.3441 49.807 43.1132 50.4251 43.1132C51.0433 43.1132 51.6391 43.3441 52.0958 43.7607L68.2635 59.8565V64.0601Z" fill="url(#paint0_linear_88_638)"/>
<defs>
<linearGradient id="paint0_linear_88_638" x1="43.1137" y1="10.7786" x2="43.1137" y2="75.4494" gradientUnits="userSpaceOnUse">
<stop stop-color="#D273FF"/>
<stop offset="1" stop-color="#5C00FF" stop-opacity="0.5"/>
</linearGradient>
</defs>
</svg>
