<svg width="82" height="82" viewBox="0 0 82 82" fill="none" xmlns="http://www.w3.org/2000/svg">
<path d="M23.9092 71.7281H58.0654V23.9093H54.6498V18.7859C54.6498 16.5212 53.7501 14.3492 52.1488 12.7479C50.5474 11.1465 48.3754 10.2468 46.1107 10.2468H35.8639C33.5992 10.2468 31.4272 11.1465 29.8258 12.7479C28.2245 14.3492 27.3248 16.5212 27.3248 18.7859V23.9093H23.9092V71.7281ZM34.156 18.7859C34.156 18.3329 34.336 17.8986 34.6563 17.5783C34.9765 17.258 35.4109 17.0781 35.8639 17.0781H46.1107C46.5637 17.0781 46.9981 17.258 47.3183 17.5783C47.6386 17.8986 47.8185 18.3329 47.8185 18.7859V23.9093H34.156V18.7859Z" fill="url(#paint0_linear_88_623)"/>
<path d="M64.8965 23.9092V71.7279C67.6141 71.7279 70.2205 70.6483 72.1421 68.7267C74.0638 66.805 75.1434 64.1987 75.1434 61.481V34.156C75.1434 31.4384 74.0638 28.8321 72.1421 26.9104C70.2205 24.9888 67.6141 23.9092 64.8965 23.9092Z" fill="url(#paint1_linear_88_623)"/>
<path d="M17.0779 23.9092C14.3603 23.9092 11.754 24.9888 9.83229 26.9104C7.91063 28.8321 6.83105 31.4384 6.83105 34.156V61.481C6.83105 64.1987 7.91063 66.805 9.83229 68.7267C11.754 70.6483 14.3603 71.7279 17.0779 71.7279V23.9092Z" fill="url(#paint2_linear_88_623)"/>
<defs>
<linearGradient id="paint0_linear_88_623" x1="40.9873" y1="10.2468" x2="40.9873" y2="71.7281" gradientUnits="userSpaceOnUse">
<stop stop-color="#D273FF"/>
<stop offset="1" stop-color="#5C00FF" stop-opacity="0.5"/>
</linearGradient>
<linearGradient id="paint1_linear_88_623" x1="70.0199" y1="23.9092" x2="70.0199" y2="71.7279" gradientUnits="userSpaceOnUse">
<stop stop-color="#D273FF"/>
<stop offset="1" stop-color="#5C00FF" stop-opacity="0.5"/>
</linearGradient>
<linearGradient id="paint2_linear_88_623" x1="11.9545" y1="23.9092" x2="11.9545" y2="71.7279" gradientUnits="userSpaceOnUse">
<stop stop-color="#D273FF"/>
<stop offset="1" stop-color="#5C00FF" stop-opacity="0.5"/>
</linearGradient>
</defs>
</svg>
