<svg width="18" height="22" viewBox="0 0 18 22" fill="none" xmlns="http://www.w3.org/2000/svg">
<path d="M9.53382 21.502C9.45543 21.5302 9.36962 21.5302 9.29123 21.502C8.25002 21.137 0.825196 18.2388 0.825196 9.98636V2.52826C0.824971 2.43233 0.856878 2.33909 0.915828 2.26341C0.974778 2.18773 1.05737 2.13397 1.15044 2.1107L9.3084 0.0679918C9.37677 0.0509038 9.44829 0.0509038 9.51665 0.0679918L17.6746 2.1107C17.7677 2.13397 17.8503 2.18773 17.9092 2.26341C17.9682 2.33909 18.0001 2.43233 17.9999 2.52826V9.98636C17.9999 18.3214 10.5761 21.1467 9.53382 21.503V21.502Z" fill="url(#paint0_linear_88_567)" fill-opacity="0.75"/>
<defs>
<linearGradient id="paint0_linear_88_567" x1="9.41253" y1="0.0551758" x2="9.41253" y2="21.5232" gradientUnits="userSpaceOnUse">
<stop stop-color="#E46E6E"/>
<stop offset="1" stop-color="#5C00FF" stop-opacity="0.5"/>
</linearGradient>
</defs>
</svg>
